<svg width="2995" height="800" viewBox="0 0 2995 800" fill="none" xmlns="http://www.w3.org/2000/svg">
<path d="M22.0507 632.415C15.5825 632.415 10.2904 630.356 6.17422 626.24C2.05809 622.124 0 616.832 0 610.364V28.2249C0 21.7567 2.05809 16.4645 6.17422 12.3484C10.2904 8.23225 15.5825 6.17417 22.0507 6.17417H126.13C132.598 6.17417 137.891 8.23225 142.007 12.3484C146.123 16.4645 148.181 21.7567 148.181 28.2249V610.364C148.181 616.832 146.123 622.124 142.007 626.24C137.891 630.356 132.598 632.415 126.13 632.415H22.0507Z" fill="#171717"/>
<path d="M320.294 800C315.001 800 310.591 798.236 307.063 794.708C303.535 791.18 301.771 786.77 301.771 781.477C301.771 780.301 301.771 778.537 301.771 776.185C302.359 774.421 303.241 772.363 304.417 770.011L373.215 604.19L203.866 203.749C202.102 199.632 201.22 196.104 201.22 193.164C202.396 187.872 204.748 183.462 208.276 179.934C211.804 175.818 216.214 173.76 221.506 173.76H322.058C329.702 173.76 335.288 175.818 338.816 179.934C342.932 183.462 345.578 187.578 346.754 192.282L448.188 448.953L551.385 192.282C553.737 187.578 556.677 183.462 560.205 179.934C564.322 175.818 570.202 173.76 577.846 173.76H676.633C681.925 173.76 686.335 175.818 689.864 179.934C693.98 183.462 696.038 187.578 696.038 192.282C696.038 195.222 695.156 199.044 693.392 203.749L443.778 781.477C442.013 786.182 439.073 790.298 434.957 793.826C430.841 797.942 424.961 800 417.317 800H320.294Z" fill="#171717"/>
<path d="M765.436 632.415C758.967 632.415 753.675 630.356 749.559 626.24C745.443 622.124 743.385 616.832 743.385 610.364V195.81C743.385 189.93 745.443 184.932 749.559 180.816C753.675 176.112 758.967 173.76 765.436 173.76H866.869C873.337 173.76 878.629 176.112 882.745 180.816C886.862 184.932 888.92 189.93 888.92 195.81V231.091C904.796 212.863 923.613 198.75 945.369 188.754C967.714 178.758 992.705 173.76 1020.34 173.76H1059.15C1065.03 173.76 1070.03 175.818 1074.15 179.934C1078.85 184.05 1081.2 189.342 1081.2 195.81V286.659C1081.2 292.539 1078.85 297.832 1074.15 302.536C1070.03 306.652 1065.03 308.71 1059.15 308.71H973.594C949.485 308.71 930.669 315.472 917.145 328.997C904.208 341.933 897.74 360.456 897.74 384.564V610.364C897.74 616.832 895.388 622.124 890.684 626.24C886.568 630.356 881.275 632.415 874.807 632.415H765.436Z" fill="#171717"/>
<path d="M1148.33 632.415C1141.86 632.415 1136.57 630.356 1132.45 626.24C1128.33 622.124 1126.27 616.832 1126.27 610.364V195.81C1126.27 189.342 1128.33 184.05 1132.45 179.934C1136.57 175.818 1141.86 173.76 1148.33 173.76H1249.76C1256.23 173.76 1261.52 175.818 1265.64 179.934C1269.75 184.05 1271.81 189.342 1271.81 195.81V229.327C1287.1 211.099 1307.09 195.81 1331.79 183.462C1356.48 171.114 1385.59 164.939 1419.11 164.939C1453.21 164.939 1483.2 172.584 1509.08 187.872C1535.54 203.161 1556.12 225.799 1570.82 255.788C1586.11 285.189 1593.75 321.352 1593.75 364.278V610.364C1593.75 616.832 1591.4 622.124 1586.69 626.24C1582.58 630.356 1577.58 632.415 1571.7 632.415H1460.56C1454.68 632.415 1449.39 630.356 1444.69 626.24C1440.57 622.124 1438.51 616.832 1438.51 610.364V369.57C1438.51 341.933 1431.75 320.764 1418.23 306.064C1405.29 290.775 1385.89 283.131 1360.01 283.131C1335.9 283.131 1316.5 290.775 1301.8 306.064C1287.69 320.764 1280.63 341.933 1280.63 369.57V610.364C1280.63 616.832 1278.28 622.124 1273.57 626.24C1269.46 630.356 1264.46 632.415 1258.58 632.415H1148.33Z" fill="#171717"/>
<path d="M1708.94 632.415C1703.06 632.415 1698.07 630.65 1693.95 627.122C1690.42 623.006 1688.66 618.008 1688.66 612.128V26.4608C1688.66 20.5807 1690.42 15.8765 1693.95 12.3484C1698.07 8.23225 1703.06 6.17417 1708.94 6.17417H1750.4C1756.87 6.17417 1761.87 8.23225 1765.39 12.3484C1768.92 15.8765 1770.69 20.5807 1770.69 26.4608V612.128C1770.69 618.008 1768.92 623.006 1765.39 627.122C1761.87 630.65 1756.87 632.415 1750.4 632.415H1708.94Z" fill="#171717"/>
<path d="M1913.51 632.415C1907.63 632.415 1902.63 630.65 1898.52 627.122C1894.99 623.006 1893.23 618.008 1893.23 612.128V194.046C1893.23 188.166 1894.99 183.462 1898.52 179.934C1902.63 175.818 1907.63 173.76 1913.51 173.76H1955.85C1961.73 173.76 1966.43 175.818 1969.96 179.934C1973.49 183.462 1975.25 188.166 1975.25 194.046V612.128C1975.25 618.008 1973.49 623.006 1969.96 627.122C1966.43 630.65 1961.73 632.415 1955.85 632.415H1913.51ZM1906.46 88.2028C1900.58 88.2028 1895.58 86.4388 1891.46 82.9107C1887.93 78.7945 1886.17 73.7963 1886.17 67.9162V20.2867C1886.17 14.4064 1887.93 9.70228 1891.46 6.17417C1895.58 2.05806 1900.58 0 1906.46 0H1962.02C1967.9 0 1972.61 2.05806 1976.14 6.17417C1980.25 9.70228 1982.31 14.4064 1982.31 20.2867V67.9162C1982.31 73.7963 1980.25 78.7945 1976.14 82.9107C1972.61 86.4388 1967.9 88.2028 1962.02 88.2028H1906.46Z" fill="#171717"/>
<path d="M2118.1 632.415C2112.22 632.415 2107.22 630.65 2103.11 627.122C2099.58 623.006 2097.82 618.008 2097.82 612.128V194.046C2097.82 188.166 2099.58 183.462 2103.11 179.934C2107.22 175.818 2112.22 173.76 2118.1 173.76H2159.56C2165.44 173.76 2170.14 175.818 2173.67 179.934C2177.79 183.462 2179.84 188.166 2179.84 194.046V232.856C2195.13 212.863 2214.24 196.692 2237.18 184.344C2260.7 171.408 2290.69 164.939 2327.14 164.939C2365.36 164.939 2397.71 173.466 2424.17 190.518C2451.22 206.983 2471.5 230.209 2485.03 260.198C2498.55 289.599 2505.31 323.999 2505.31 363.396V612.128C2505.31 618.008 2503.55 623.006 2500.02 627.122C2496.49 630.65 2491.79 632.415 2485.91 632.415H2441.81C2435.93 632.415 2430.93 630.65 2426.81 627.122C2423.28 623.006 2421.52 618.008 2421.52 612.128V367.806C2421.52 326.645 2411.52 294.598 2391.53 271.665C2371.54 248.144 2342.14 236.384 2303.33 236.384C2266.87 236.384 2237.47 248.144 2215.13 271.665C2193.37 294.598 2182.49 326.645 2182.49 367.806V612.128C2182.49 618.008 2180.43 623.006 2176.32 627.122C2172.79 630.65 2168.08 632.415 2162.2 632.415H2118.1Z" fill="#171717"/>
<path d="M2636.25 632.415C2630.37 632.415 2625.37 630.65 2621.25 627.122C2617.72 623.006 2615.96 618.008 2615.96 612.128V26.4608C2615.96 20.5807 2617.72 15.8765 2621.25 12.3484C2625.37 8.23225 2630.37 6.17417 2636.25 6.17417H2677.7C2683.58 6.17417 2688.29 8.23225 2691.81 12.3484C2695.93 15.8765 2697.99 20.5807 2697.99 26.4608V333.407L2871.75 188.754C2878.8 182.874 2884.1 179.052 2887.62 177.288C2891.74 174.936 2898.21 173.76 2907.03 173.76H2953.78C2959.07 173.76 2963.48 175.524 2967.01 179.052C2970.53 182.58 2972.3 186.99 2972.3 192.282C2972.3 194.634 2971.42 197.28 2969.65 200.221C2968.48 203.161 2965.83 206.101 2961.71 209.041L2757.97 378.39L2983.77 598.015C2990.82 603.896 2994.35 609.188 2994.35 613.892C2994.35 619.184 2992.59 623.594 2989.06 627.122C2985.53 630.65 2981.12 632.415 2975.83 632.415H2929.96C2921.14 632.415 2914.67 631.533 2910.56 629.768C2906.44 627.416 2901.15 623.3 2894.68 617.42L2697.99 429.548V612.128C2697.99 618.008 2695.93 623.006 2691.81 627.122C2688.29 630.65 2683.58 632.415 2677.7 632.415H2636.25Z" fill="#171717"/>
</svg>
