<svg width="3489" height="1500" viewBox="0 0 3489 1500" fill="none" xmlns="http://www.w3.org/2000/svg">
<path d="M419.172 448H526.372V897.6C526.372 917.333 529.572 930.4 535.972 936.8C542.372 943.2 551.172 946.4 562.372 946.4C570.905 946.4 579.705 945.333 588.772 943.2C597.839 941.067 605.839 938.4 612.772 935.2L627.172 1016.8C612.772 1023.73 595.972 1029.07 576.772 1032.8C557.572 1036.53 540.239 1038.4 524.772 1038.4C491.172 1038.4 465.039 1029.6 446.372 1012C428.239 993.867 419.172 968.267 419.172 935.2V448ZM661.584 1113.6C681.318 1118.93 697.318 1121.6 709.584 1121.6C723.984 1121.6 735.451 1115.47 743.984 1103.2C753.051 1091.47 763.184 1067.73 774.384 1032L608.784 612.8H719.984L832.784 922.4L931.984 612.8H1034.38L858.384 1115.2C848.784 1144 831.451 1167.73 806.384 1186.4C781.851 1205.6 751.451 1215.2 715.184 1215.2C697.584 1215.2 679.718 1212.27 661.584 1206.4V1113.6ZM1342.23 705.6C1309.69 705.6 1280.63 712 1255.03 724.8C1229.43 737.067 1211.03 754.933 1199.83 778.4V1032H1092.63V612.8H1191.03V702.4C1205.43 673.6 1224.09 650.933 1247.03 634.4C1270.49 617.867 1295.03 608.8 1320.63 607.2C1331.83 607.2 1339.03 607.467 1342.23 608V705.6ZM1791.6 1032H1684.4V796.8C1684.4 763.2 1678.54 738.667 1666.8 723.2C1655.07 707.733 1638.8 700 1618 700C1603.6 700 1588.94 703.733 1574 711.2C1559.6 718.667 1546.54 729.067 1534.8 742.4C1523.07 755.2 1514.54 770.133 1509.2 787.2V1032H1402V612.8H1498.8V690.4C1514.27 664.267 1536.67 643.733 1566 628.8C1595.34 613.333 1628.4 605.6 1665.2 605.6C1691.34 605.6 1712.67 610.4 1729.2 620C1745.74 629.067 1758.54 641.6 1767.6 657.6C1776.67 673.067 1782.8 690.667 1786 710.4C1789.74 730.133 1791.6 750.133 1791.6 770.4V1032ZM1898.42 448H1952.82V937.6C1952.82 958.4 1956.28 972 1963.22 978.4C1970.68 984.8 1980.02 988 1991.22 988C2000.82 988 2010.42 986.933 2020.02 984.8C2030.15 982.667 2038.42 980.533 2044.82 978.4L2054.42 1022.4C2044.28 1026.67 2031.75 1030.13 2016.82 1032.8C2002.42 1035.47 1989.88 1036.8 1979.22 1036.8C1954.68 1036.8 1934.95 1029.6 1920.02 1015.2C1905.62 1000.8 1898.42 981.067 1898.42 956V448ZM2113.98 528V448H2168.38V528H2113.98ZM2113.98 1032V615.2H2168.38V1032H2113.98ZM2638.6 1032H2584.2V799.2C2584.2 750.133 2576.74 714.4 2561.8 692C2547.4 669.067 2525 657.6 2494.6 657.6C2473.27 657.6 2452.2 662.933 2431.4 673.6C2410.6 683.733 2392.2 697.867 2376.2 716C2360.74 733.6 2349.54 753.867 2342.6 776.8V1032H2288.2V615.2H2337.8V709.6C2354.34 679.2 2378.6 654.667 2410.6 636C2442.6 617.333 2477.27 608 2514.6 608C2545.54 608 2570.07 615.467 2588.2 630.4C2606.34 644.8 2619.14 665.6 2626.6 692.8C2634.6 719.467 2638.6 751.2 2638.6 788V1032ZM3052.21 1032L2897.81 818.4L2809.01 901.6V1032H2754.61V448H2809.01V843.2L3045.01 616H3105.01L2934.61 786.4L3111.41 1032H3052.21Z" fill="white"/>
</svg>
